<svg width="356" height="200" viewBox="0 0 356 200" fill="none" xmlns="http://www.w3.org/2000/svg">
<rect width="355.556" height="200" fill="#E20010"/>
<path d="M50.9728 117.963C48.1542 117.963 46.1093 116.934 44.8751 114.895C41.7986 109.768 44.9672 103.355 46.4594 100.857C47.491 99.111 49.0385 97.2551 50.4938 96.024C51.9492 94.8113 54.1782 93.3413 56.5178 93.3413H56.7021C59.1522 93.4148 61.7497 95.1053 61.8603 97.8247C61.9524 99.8643 60.5891 101.279 59.6128 102.327L59.447 102.51C58.6548 103.355 57.8627 104.127 57.1073 104.881C55.7625 106.204 54.4914 107.453 53.2571 108.996C53.2571 108.996 49.8306 114.252 55.4678 112.653C55.781 112.543 56.1126 112.396 56.4994 112.249L56.6836 112.175C58.0285 111.642 59.2996 110.907 60.4233 110.246L60.6444 110.117C63.0577 108.739 65.7473 106.7 68.6949 104.054C74.4426 98.8537 78.5875 93.4148 81.0008 87.9208C82.7694 83.8601 83.0641 79.4502 81.7746 76.6389C81.0377 75.0403 79.785 74.0113 78.0901 73.6071C77.5375 73.4601 76.9664 73.4233 76.3953 73.4233C75.2347 73.4233 73.9636 73.6622 72.5082 74.195C66.9079 76.253 61.9339 79.7809 57.1258 83.1802L56.5363 83.6028C55.9468 84.0254 55.3757 84.4297 54.7677 84.8339C54.5651 84.9809 54.344 85.1279 54.1414 85.2933C50.7517 87.4982 45.8146 90.089 41.3012 90.089C39.0905 90.089 37.2115 89.4643 35.7008 88.2148C34.0429 86.8184 33.1218 84.9442 33.0112 82.6657C32.7533 77.2636 36.9904 70.8876 40.7117 67.0841C42.3144 65.5958 44.0461 64.1993 45.833 62.8947C46.0909 62.7477 46.312 62.6007 46.5146 62.4353C46.791 62.2332 47.0489 62.0678 47.3068 61.9025L47.3436 61.8657L47.62 61.682C56.4257 55.5816 64.7341 52.4947 72.324 52.4947C80.614 52.4947 84.9984 56.2064 85.4037 56.5555C88.9223 59.183 91.3541 62.6742 92.6068 66.9004C94.3016 72.6883 92.9199 78.8806 91.9251 82.0594C89.4934 89.8685 85.2563 96.2813 78.2007 102.804C75.0136 105.763 71.9003 108.225 68.7317 110.338L67.9211 110.871C64.9183 112.892 61.805 114.968 57.8811 116.457C55.2651 117.467 52.9439 117.963 50.9728 117.963Z" fill="white"/>
<path fill-rule="evenodd" clip-rule="evenodd" d="M181.316 42.5357C182.772 44.1526 183.546 46.2841 183.509 48.5074C183.509 53.2297 179.972 56.923 175.513 56.923C171.037 56.923 167.518 53.2113 167.518 48.4523C167.518 43.7852 171.147 40 175.606 40C177.798 40 179.824 40.9004 181.316 42.5357ZM169.195 63.3357L181.777 61.1675V114.086H169.195V63.3357ZM159.781 78.5131V106.773C154.77 112.065 147.364 115.06 138.614 115.06C127.745 115.06 119.952 106.553 119.952 96.6304C120.155 86.2304 127.598 79.5053 139.572 79.5053H147.033V76.8042C147.033 72.1922 145.154 69.9873 140.604 69.7852C136.845 69.6198 132.664 70.8693 128.74 72.7251L126.824 73.6806L123.453 65.706L124.871 64.9526C130.416 62.0311 135.814 60.2304 141.819 60.2304C150.496 60.2304 159.781 64.7505 159.781 78.5131ZM147.014 88.5088H141.967C135.648 88.5088 133.327 93.0106 133.235 96.9611C133.161 101.739 135.427 105.836 140.475 105.836C143.238 105.836 145.762 105.046 147.014 104.127V88.5088ZM287.815 101.224L291.37 108.941C291.37 108.941 287.354 112.028 281.92 113.792C279.083 114.729 275.988 115.189 273.003 115.189C267.55 115.189 262.853 113.553 259.445 110.558C253.881 105.671 250.823 97.053 250.915 88.5088C251.026 75.0035 256.792 60.6346 271.566 60.6346C284.812 60.6346 290.854 69.1788 291.094 87.9392V89.2622H263.995C263.719 94.9032 264.732 100.213 266.979 102.804C268.508 104.531 270.848 105.726 274.293 105.726C281.754 105.726 287.188 101.739 287.815 101.224ZM264.363 80.9201H277.977C277.977 76.9512 277.148 70.5385 271.566 70.5385C266.611 70.5385 264.584 75.812 264.363 80.9201ZM213.463 60.359C217.276 60.359 220.556 61.241 221.919 61.9576L218.382 70.3915C218.382 70.3915 216.355 69.6933 213.242 69.8219C209.852 69.9689 206.315 71.4756 204.639 73.2028V114.141H191.817L191.835 70.6488C199.462 62.0678 207.936 60.359 213.463 60.359ZM319.667 105.799V114.141C319.667 114.141 316.977 114.674 314.84 114.674C304.818 114.674 298.813 109.676 298.813 98.0085V48.7647L311.432 46.5046V98.8721C311.432 102.914 312.519 105.34 317.751 105.763C318.469 105.818 319.667 105.799 319.667 105.799ZM238.204 61.1859H246.494V70.9611H238.204V98.7986C238.204 102.437 239.272 105.597 244.689 105.799C245.407 105.818 246.347 105.818 246.494 105.836V114.068C246.494 114.068 244.173 114.564 241.704 114.564C231.443 114.564 225.327 109.309 225.327 98.2474V48.7647L238.204 46.5781V61.1859Z" fill="white"/>
<path d="M126.124 159.159C126.124 159.68 126.001 160.032 125.755 160.216C125.54 160.399 125.218 160.491 124.788 160.491C124.358 160.491 124.021 160.399 123.775 160.216C123.56 160.032 123.453 159.68 123.453 159.159V138.074C123.453 137.584 123.56 137.263 123.775 137.11C124.021 136.926 124.328 136.834 124.696 136.834C125.095 136.834 125.418 136.926 125.663 137.11C125.909 137.263 126.032 137.584 126.032 138.074V142.254C126.216 141.856 126.477 141.32 126.815 140.647C127.152 139.973 127.628 139.33 128.242 138.717C128.856 138.074 129.639 137.523 130.591 137.064C131.574 136.604 132.771 136.375 134.183 136.375C135.841 136.375 137.285 136.849 138.513 137.799C139.741 138.717 140.539 140.187 140.908 142.208C141.092 141.78 141.368 141.244 141.737 140.601C142.136 139.927 142.673 139.284 143.348 138.671C144.024 138.028 144.853 137.492 145.835 137.064C146.849 136.604 148.046 136.375 149.428 136.375C150.441 136.375 151.377 136.543 152.237 136.88C153.097 137.186 153.834 137.676 154.448 138.35C155.093 138.993 155.599 139.82 155.968 140.83C156.336 141.841 156.52 143.035 156.52 144.413V159.389C156.52 160.124 156.106 160.491 155.277 160.491C154.325 160.491 153.849 160.124 153.849 159.389V145.424C153.849 143.311 153.465 141.718 152.698 140.647C151.961 139.544 150.717 138.993 148.967 138.993C147.616 138.993 146.45 139.299 145.467 139.912C144.515 140.494 143.717 141.274 143.072 142.254C142.458 143.204 141.998 144.276 141.69 145.47C141.383 146.664 141.23 147.843 141.23 149.007V159.389C141.23 160.124 140.815 160.491 139.986 160.491C139.035 160.491 138.559 160.124 138.559 159.389V145.424C138.559 143.311 138.175 141.718 137.407 140.647C136.64 139.544 135.381 138.993 133.631 138.993C132.311 138.993 131.175 139.299 130.223 139.912C129.271 140.524 128.488 141.32 127.874 142.3C127.291 143.25 126.845 144.337 126.538 145.562C126.262 146.756 126.124 147.935 126.124 149.099V159.159Z" fill="white"/>
<path d="M164.954 148.64C164.954 151.794 165.66 154.229 167.072 155.943C168.485 157.658 170.511 158.516 173.152 158.516C175.823 158.516 177.865 157.658 179.277 155.943C180.689 154.229 181.396 151.794 181.396 148.64C181.396 145.516 180.689 143.097 179.277 141.382C177.865 139.636 175.823 138.763 173.152 138.763C170.511 138.763 168.485 139.636 167.072 141.382C165.66 143.097 164.954 145.516 164.954 148.64ZM162.052 148.64C162.052 146.71 162.313 144.995 162.835 143.495C163.388 141.963 164.14 140.677 165.092 139.636C166.074 138.564 167.241 137.753 168.592 137.201C169.974 136.65 171.494 136.375 173.152 136.375C174.81 136.375 176.329 136.65 177.711 137.201C179.093 137.753 180.259 138.564 181.211 139.636C182.194 140.677 182.946 141.963 183.468 143.495C184.021 144.995 184.297 146.71 184.297 148.64C184.297 150.569 184.021 152.299 183.468 153.83C182.946 155.362 182.194 156.663 181.211 157.735C180.259 158.776 179.093 159.572 177.711 160.124C176.329 160.675 174.81 160.951 173.152 160.951C171.494 160.951 169.974 160.675 168.592 160.124C167.241 159.572 166.074 158.776 165.092 157.735C164.14 156.663 163.388 155.362 162.835 153.83C162.313 152.299 162.052 150.569 162.052 148.64Z" fill="white"/>
<path d="M192.508 159.159C192.508 159.68 192.385 160.032 192.14 160.216C191.925 160.399 191.602 160.491 191.173 160.491C190.743 160.491 190.405 160.399 190.159 160.216C189.944 160.032 189.837 159.68 189.837 159.159V138.074C189.837 137.584 189.944 137.263 190.159 137.11C190.405 136.926 190.712 136.834 191.08 136.834C191.48 136.834 191.802 136.926 192.048 137.11C192.293 137.263 192.416 137.584 192.416 138.074V142.254C192.6 141.856 192.892 141.32 193.291 140.647C193.69 139.973 194.243 139.33 194.949 138.717C195.686 138.074 196.561 137.523 197.574 137.064C198.618 136.604 199.846 136.375 201.259 136.375C203.623 136.375 205.526 137.033 206.97 138.35C208.443 139.636 209.18 141.657 209.18 144.413V159.389C209.18 160.124 208.766 160.491 207.937 160.491C206.985 160.491 206.509 160.124 206.509 159.389V145.424C206.509 143.342 206.079 141.749 205.219 140.647C204.39 139.544 202.886 138.993 200.706 138.993C199.263 138.993 198.019 139.299 196.976 139.912C195.932 140.524 195.072 141.32 194.396 142.3C193.752 143.25 193.276 144.337 192.969 145.562C192.662 146.756 192.508 147.935 192.508 149.099V159.159Z" fill="white"/>
<path d="M225.542 138.717C224.283 138.717 223.178 138.932 222.226 139.36C221.274 139.789 220.476 140.371 219.831 141.106C219.186 141.841 218.68 142.698 218.311 143.678C217.943 144.658 217.713 145.684 217.621 146.756H233.279C233.187 145.684 232.957 144.674 232.589 143.724C232.251 142.744 231.76 141.887 231.115 141.152C230.501 140.417 229.733 139.835 228.812 139.406C227.891 138.947 226.801 138.717 225.542 138.717ZM235.951 147.813C235.951 148.211 235.828 148.502 235.582 148.686C235.367 148.839 235.075 148.915 234.707 148.915H217.528C217.59 151.978 218.311 154.351 219.693 156.035C221.105 157.72 223.116 158.562 225.726 158.562C226.77 158.562 227.645 158.455 228.351 158.24C229.088 157.995 229.702 157.704 230.194 157.367C230.716 157 231.145 156.617 231.483 156.219C231.821 155.79 232.113 155.392 232.358 155.025C232.542 154.78 232.696 154.596 232.819 154.474C232.942 154.351 233.126 154.29 233.371 154.29C233.678 154.29 233.986 154.382 234.293 154.565C234.6 154.749 234.753 155.009 234.753 155.346C234.753 155.714 234.6 156.112 234.293 156.541C234.016 156.969 233.648 157.444 233.187 157.965C232.757 158.455 232.189 158.929 231.483 159.389C230.808 159.817 229.994 160.185 229.042 160.491C228.09 160.797 226.985 160.951 225.726 160.951C223.915 160.951 222.318 160.66 220.937 160.078C219.586 159.465 218.45 158.623 217.528 157.551C216.607 156.449 215.901 155.147 215.41 153.647C214.949 152.146 214.719 150.477 214.719 148.64C214.719 146.863 214.965 145.225 215.456 143.724C215.978 142.193 216.715 140.892 217.667 139.82C218.618 138.748 219.754 137.906 221.075 137.293C222.426 136.681 223.93 136.375 225.588 136.375C227.277 136.375 228.766 136.681 230.055 137.293C231.345 137.875 232.42 138.687 233.279 139.728C234.17 140.739 234.83 141.948 235.26 143.357C235.72 144.735 235.951 146.22 235.951 147.813Z" fill="white"/>
<path d="M246.448 168.989C246.171 169.663 245.772 170 245.25 170C244.882 170 244.559 169.893 244.283 169.678C244.037 169.464 243.915 169.173 243.915 168.806C243.915 168.561 244.022 168.178 244.237 167.657L247.691 159.94L238.941 139.085C238.879 138.932 238.818 138.763 238.756 138.58C238.695 138.365 238.664 138.166 238.664 137.982C238.664 137.584 238.833 137.293 239.171 137.11C239.539 136.895 239.938 136.788 240.368 136.788C240.767 136.788 241.105 137.125 241.381 137.799L249.165 156.495L257.317 137.753C257.562 137.11 257.9 136.788 258.33 136.788C258.729 136.788 259.097 136.895 259.435 137.11C259.773 137.293 259.942 137.554 259.942 137.89C259.942 138.013 259.911 138.181 259.85 138.396C259.788 138.58 259.727 138.763 259.665 138.947L246.448 168.989Z" fill="white"/>
</svg>
