<svg width="356" height="200" viewBox="0 0 356 200" fill="none" xmlns="http://www.w3.org/2000/svg">
<rect width="355.556" height="200" fill="#FFCA06"/>
<path d="M28.154 46.7122C28.154 39.7316 33.7334 34.0727 40.6159 34.0727H150.697C157.579 34.0727 163.159 39.7316 163.159 46.7122V158.361C163.159 165.341 157.579 171 150.697 171H40.6159C33.7334 171 28.154 165.341 28.154 158.361V46.7122Z" fill="black"/>
<path d="M24 42.6394C24 35.6589 29.5794 30 36.462 30H146.543C153.425 30 159.005 35.6589 159.005 42.6394V154.288C159.005 161.268 153.425 166.927 146.543 166.927H36.462C29.5794 166.927 24 161.268 24 154.288V42.6394Z" fill="#015B80"/>
<path d="M24 150.075H159.005V154.288C159.005 161.268 153.425 166.927 146.543 166.927H36.462C29.5794 166.927 24 161.268 24 154.288V150.075Z" fill="#FFCA06"/>
<path fill-rule="evenodd" clip-rule="evenodd" d="M51.4163 99.2361L78.0018 57.6663C78.0018 57.6663 92.6793 63.4945 106.941 86.1763C121.203 108.858 117.257 138.067 117.257 138.067C107.634 125.147 94.5594 115.584 83.1251 109.628C72.8786 104.292 64.5014 101.694 51.4163 99.2361ZM82.9866 99.868C89.6398 99.868 95.0332 94.3664 95.0332 87.5797C95.0332 80.793 89.6398 75.2913 82.9866 75.2913C76.3335 75.2913 70.9401 80.793 70.9401 87.5797C70.9401 94.3664 76.3335 99.868 82.9866 99.868Z" fill="#FFCA06"/>
<path d="M104.103 42.2181C104.103 42.2181 111.795 51.3466 117.88 68.4801C123.965 85.6135 121.619 106.539 121.619 106.539C121.619 106.539 118.296 89.5458 108.603 75.502C98.9102 61.4582 93.51 58.509 93.51 58.509L104.103 42.2181Z" fill="#FFCA06"/>
<path d="M208.273 66.4859H215.03V103.449H207.719V78.5074L198.635 92.0456H194.592L185.01 78.5635V103.449H178.253V66.4859H185.01L197.085 83.507L208.273 66.4859Z" fill="#004F70"/>
<path d="M236.405 104.46C232.122 104.46 228.559 103.15 225.716 100.528C222.873 97.8691 221.451 94.4986 221.451 90.4165C221.451 86.2221 222.91 82.7205 225.827 79.9118C228.781 77.0655 232.436 75.6424 236.793 75.6424C241.039 75.6424 244.584 76.9719 247.427 79.6309C250.307 82.2524 251.748 85.6042 251.748 89.6863C251.748 93.8807 250.271 97.401 247.317 100.247C244.363 103.056 240.726 104.46 236.405 104.46ZM236.793 98.899C239.082 98.899 240.91 98.1126 242.276 96.5396C243.68 94.9667 244.381 92.8882 244.381 90.3042C244.381 87.5329 243.643 85.3233 242.166 83.6755C240.726 81.9902 238.787 81.1476 236.35 81.1476C234.098 81.1476 232.27 81.9528 230.867 83.5631C229.464 85.1361 228.762 87.2145 228.762 89.7986C228.762 92.5699 229.482 94.7795 230.922 96.4273C232.399 98.0751 234.356 98.899 236.793 98.899Z" fill="#004F70"/>
<path d="M288.161 66.4859H294.918V103.449H287.607V78.5074L278.524 92.0456H274.481L264.899 78.5635V103.449H258.142V66.4859H264.899L276.973 83.507L288.161 66.4859Z" fill="#004F70"/>
<path d="M316.294 104.46C312.011 104.46 308.448 103.15 305.604 100.528C302.761 97.8691 301.34 94.4986 301.34 90.4165C301.34 86.2221 302.798 82.7205 305.715 79.9118C308.669 77.0655 312.325 75.6424 316.682 75.6424C320.928 75.6424 324.473 76.9719 327.316 79.6309C330.196 82.2524 331.636 85.6042 331.636 89.6863C331.636 93.8807 330.159 97.401 327.205 100.247C324.251 103.056 320.614 104.46 316.294 104.46ZM316.682 98.899C318.971 98.899 320.799 98.1126 322.165 96.5396C323.568 94.9667 324.27 92.8882 324.27 90.3042C324.27 87.5329 323.531 85.3233 322.054 83.6755C320.614 81.9902 318.676 81.1476 316.239 81.1476C313.986 81.1476 312.158 81.9528 310.755 83.5631C309.352 85.1361 308.651 87.2145 308.651 89.7986C308.651 92.5699 309.371 94.7795 310.811 96.4273C312.288 98.0751 314.245 98.899 316.682 98.899Z" fill="#004F70"/>
<path d="M182.573 117.975C181.982 117.975 181.551 118.125 181.279 118.424C181.019 118.724 180.889 119.197 180.889 119.845V120.276H184.044V122.11H180.889V128.869H178.603V119.916C178.603 117.4 179.826 116.141 182.272 116.141C183.158 116.141 184.003 116.285 184.806 116.573V118.442C184.062 118.131 183.317 117.975 182.573 117.975Z" fill="#004F70"/>
<path d="M190.753 120.042C191.096 120.042 191.426 120.084 191.745 120.168V122.433C191.403 122.301 191.007 122.235 190.558 122.235C189.376 122.235 188.472 122.853 187.846 124.087V128.869H185.56V120.492L187.775 120.006V122.163C188.142 121.48 188.585 120.959 189.105 120.6C189.636 120.228 190.186 120.042 190.753 120.042Z" fill="#004F70"/>
<path d="M197.271 129.192C195.9 129.192 194.76 128.773 193.85 127.934C192.94 127.083 192.486 126.004 192.486 124.698C192.486 123.356 192.952 122.235 193.886 121.337C194.831 120.426 196.001 119.97 197.395 119.97C198.754 119.97 199.888 120.396 200.798 121.247C201.72 122.086 202.18 123.158 202.18 124.464C202.18 125.807 201.708 126.933 200.762 127.844C199.817 128.743 198.653 129.192 197.271 129.192ZM197.395 127.412C198.128 127.412 198.712 127.161 199.15 126.657C199.599 126.154 199.823 125.489 199.823 124.662C199.823 123.775 199.587 123.068 199.114 122.541C198.653 122.002 198.033 121.732 197.253 121.732C196.532 121.732 195.948 121.99 195.499 122.505C195.05 123.008 194.825 123.673 194.825 124.5C194.825 125.387 195.055 126.094 195.516 126.622C195.989 127.149 196.615 127.412 197.395 127.412Z" fill="#004F70"/>
<path d="M214.784 120.078C215.647 120.078 216.338 120.39 216.858 121.013C217.378 121.636 217.637 122.523 217.637 123.673V128.869H215.351V124.231C215.351 122.769 214.884 122.038 213.951 122.038C213.159 122.038 212.509 122.469 212.001 123.332C212.013 123.404 212.019 123.518 212.019 123.673V128.869H209.733V124.231C209.733 122.769 209.266 122.038 208.333 122.038C207.541 122.038 206.897 122.463 206.401 123.314V128.869H204.114V120.492L206.33 120.006V121.534C207.086 120.564 208.014 120.078 209.112 120.078C209.691 120.078 210.205 120.228 210.654 120.528C211.103 120.827 211.446 121.259 211.682 121.822C212.049 121.283 212.504 120.857 213.047 120.546C213.591 120.234 214.17 120.078 214.784 120.078Z" fill="#004F70"/>
<path d="M234.533 117.04H236.696V128.869H234.356V120.887L231.45 125.219H230.156L227.089 120.905V128.869H224.927V117.04H227.089L230.953 122.487L234.533 117.04Z" fill="#004F70"/>
<path d="M242.679 119.036H238.621V117.04H249.113V119.036H245.054V128.869H242.679V119.036Z" fill="#004F70"/>
<path d="M259.464 117.04H261.626V128.869H259.641L253.208 120.779V128.869H251.045V117.04H253.19L259.464 124.95V117.04Z" fill="#004F70"/>
</svg>
